<?xml version="1.0" standalone="no"?>
<!DOCTYPE svg PUBLIC "-//W3C//DTD SVG 20010904//EN"
 "http://www.w3.org/TR/2001/REC-SVG-20010904/DTD/svg10.dtd">
<svg version="1.0" xmlns="http://www.w3.org/2000/svg"
 width="2000.000000pt" height="1351.000000pt" viewBox="0 0 2000.000000 1351.000000"
 preserveAspectRatio="xMidYMid meet">

<g transform="translate(0.000000,1351.000000) scale(0.100000,-0.100000)"
fill="#000000" stroke="none">
<path d="M8898 12503 c-22 -25 -878 -2040 -878 -2066 0 -47 -14 -40 360 -172
151 -53 307 -108 346 -122 l71 -25 -82 -196 c-46 -108 -122 -289 -169 -401
-47 -113 -86 -210 -86 -216 0 -7 8 -19 18 -27 9 -8 392 -151 850 -318 757
-275 834 -301 853 -288 14 9 63 115 146 313 68 165 151 365 184 445 34 80 175
420 315 757 140 337 254 618 254 626 0 8 -6 19 -12 25 -7 5 -181 65 -385 133
-205 68 -373 129 -373 135 0 11 38 105 249 608 95 226 101 254 62 275 -23 13
-246 85 -1374 445 -148 47 -283 86 -301 86 -19 0 -40 -8 -48 -17z m785 -609
c315 -102 584 -190 599 -195 l26 -11 -28 -66 c-16 -37 -33 -66 -37 -66 -4 1
-242 79 -528 172 -286 94 -551 181 -590 193 -38 12 -73 25 -78 29 -9 8 43 130
55 130 5 0 267 -84 581 -186z m-213 -280 c344 -113 644 -212 666 -221 l42 -15
-26 -64 c-17 -42 -31 -64 -41 -63 -9 0 -311 98 -671 218 -576 191 -655 220
-653 237 2 25 42 114 50 114 4 0 288 -93 633 -206z m-490 -189 c146 -48 269
-91 274 -95 8 -8 -41 -130 -53 -130 -20 0 -551 183 -551 190 0 17 53 130 59
126 3 -2 125 -43 271 -91z m1200 -390 c420 -140 765 -257 768 -260 3 -3 -9
-40 -26 -82 -54 -137 -791 -1906 -796 -1910 -2 -2 -350 121 -773 275 -541 196
-768 283 -766 293 0 8 72 181 158 384 208 491 635 1504 646 1533 5 12 13 22
18 22 5 0 352 -115 771 -255z m-1051 -11 c5 -4 -49 -134 -56 -134 -9 0 -539
181 -551 189 -10 6 -7 22 14 74 l27 65 281 -95 c155 -53 283 -98 285 -99z
m-131 -309 c4 -4 -48 -135 -53 -135 -8 0 -549 190 -553 194 -2 3 8 34 23 70
l27 65 276 -95 c151 -52 277 -96 280 -99z"/>
<path d="M9121 10377 c-5 -12 -17 -41 -26 -65 -10 -24 -16 -44 -14 -46 2 -2
45 -17 94 -34 50 -17 169 -58 265 -92 172 -61 801 -280 932 -325 l68 -24 20
47 c42 93 56 80 -172 160 -164 57 -680 236 -1091 378 l-68 23 -8 -22z"/>
<path d="M6461 9503 c-17 -43 -131 -319 -255 -613 -164 -392 -220 -537 -211
-542 44 -26 504 -191 569 -204 100 -21 192 -8 278 38 70 37 112 82 147 158 38
80 37 192 -2 271 -15 31 -47 75 -71 97 l-43 39 71 7 c176 16 288 140 289 318
0 123 -79 240 -207 305 -46 23 -512 203 -527 203 -3 0 -20 -35 -38 -77z m296
-168 c79 -30 160 -63 182 -74 78 -40 130 -134 116 -210 -9 -50 -52 -125 -83
-148 -87 -62 -167 -58 -377 22 -82 31 -152 58 -154 61 -5 5 162 404 169 404 3
0 69 -25 147 -55z m-206 -542 c170 -63 230 -98 273 -160 61 -87 40 -210 -49
-292 -51 -47 -109 -65 -182 -58 -39 4 -367 115 -391 133 -3 2 163 406 175 427
7 12 17 9 174 -50z"/>
<path d="M7590 9147 c-4 -12 -119 -287 -254 -610 -135 -324 -246 -592 -246
-597 0 -7 591 -232 596 -227 12 12 52 117 46 121 -5 3 -100 39 -212 81 -112
42 -207 78 -211 81 -4 2 5 35 20 72 16 37 119 285 230 550 111 266 200 486
198 489 -3 2 -39 17 -82 33 l-76 28 -9 -21z"/>
<path d="M8515 8699 c-126 -36 -212 -86 -301 -174 -121 -120 -190 -259 -216
-439 -28 -196 65 -421 229 -556 160 -133 413 -192 610 -142 136 34 226 85 324
182 71 71 93 101 132 180 109 221 115 411 20 608 -54 112 -169 225 -284 281
-169 82 -359 104 -514 60z m290 -144 c156 -33 287 -130 352 -262 32 -66 37
-86 41 -165 6 -115 -8 -180 -63 -293 -52 -107 -104 -169 -186 -224 -251 -168
-612 -71 -736 196 -31 66 -37 92 -41 163 -11 223 121 455 310 545 117 56 200
66 323 40z"/>
<path d="M9965 8180 c-65 -13 -170 -56 -232 -95 -168 -106 -285 -291 -320
-506 -14 -87 -14 -105 0 -187 23 -140 78 -246 181 -348 89 -89 174 -138 301
-174 291 -83 598 30 760 280 39 62 92 177 84 184 -8 8 -681 258 -684 254 -1
-1 -14 -30 -28 -63 l-25 -60 26 -11 c15 -6 128 -48 252 -94 124 -46 227 -85
230 -87 10 -9 -40 -82 -95 -139 -106 -108 -250 -157 -394 -135 -392 61 -554
421 -350 778 147 257 477 335 729 173 97 -62 180 -185 180 -264 0 -13 6 -28
13 -33 11 -9 177 -73 188 -73 11 0 -10 139 -30 195 -85 241 -361 417 -650 414
-53 -1 -114 -5 -136 -9z"/>
<path d="M7530 7143 c-25 -59 -46 -110 -48 -114 -2 -4 18 -17 45 -29 69 -31
744 -300 753 -300 4 0 10 8 13 18 3 9 19 49 35 87 16 39 29 77 30 85 1 8 2 23
4 34 2 14 -10 24 -52 42 -96 41 -690 274 -713 279 -20 6 -27 -4 -67 -102z
m145 21 c31 -15 31 -15 -41 3 -18 4 -24 -4 -44 -56 -22 -60 -40 -86 -40 -59 0
7 12 41 27 76 28 68 29 68 98 36z m192 -75 c73 -29 131 -54 129 -56 -5 -6
-268 98 -281 110 -12 12 -15 13 152 -54z m301 -119 c73 -29 131 -54 129 -56
-4 -4 -278 103 -286 113 -7 8 -6 7 157 -57z"/>
<path d="M3490 6753 c0 -17 55 -53 82 -53 15 0 28 2 28 5 0 7 -85 55 -98 55
-7 0 -12 -3 -12 -7z"/>
<path d="M3671 6591 c-8 -5 -20 -7 -28 -4 -8 3 -24 -3 -36 -14 -12 -11 -76
-46 -142 -77 -66 -31 -125 -63 -130 -70 -6 -8 -50 -37 -98 -65 -48 -29 -87
-55 -87 -60 0 -4 17 -15 38 -25 40 -20 463 -204 552 -241 30 -13 177 -76 325
-140 149 -65 311 -134 360 -155 269 -113 507 -215 637 -274 81 -36 150 -66
153 -66 3 0 40 -16 83 -35 42 -19 237 -102 432 -186 195 -83 411 -176 480
-206 152 -67 625 -272 1005 -434 154 -66 314 -135 355 -154 41 -19 242 -107
445 -196 204 -89 399 -175 435 -191 36 -17 85 -38 110 -48 25 -10 78 -34 117
-54 40 -20 75 -36 77 -36 3 0 92 -39 198 -86 259 -116 608 -270 688 -304 36
-15 97 -42 135 -60 39 -18 120 -54 180 -80 61 -27 181 -80 267 -118 86 -39
165 -73 176 -76 27 -9 158 107 296 261 41 45 88 100 105 121 l31 40 -33 13
c-17 7 -248 108 -512 224 -854 377 -1338 590 -1710 752 -44 19 -134 59 -200
88 -210 94 -519 227 -556 240 -20 7 -45 18 -55 24 -26 15 -209 94 -266 115
-26 10 -50 22 -53 27 -4 5 -15 9 -26 9 -11 0 -30 6 -42 14 -12 8 -60 31 -107
51 -47 20 -118 52 -158 71 -40 19 -76 34 -79 34 -4 0 -36 13 -72 29 -36 16
-122 53 -191 82 -110 46 -205 88 -410 182 -30 13 -66 28 -80 32 -14 4 -50 21
-81 36 -31 16 -59 29 -62 29 -4 0 -30 11 -59 24 -157 71 -349 156 -354 156 -5
0 -46 18 -162 71 -35 16 -69 29 -76 29 -6 0 -16 4 -22 9 -5 5 -76 39 -159 76
-202 90 -188 84 -375 163 -323 137 -366 155 -425 183 -215 99 -305 133 -290
110 4 -7 9 -10 12 -7 3 3 18 -3 32 -14 15 -10 40 -22 56 -26 48 -12 96 -45 93
-63 -5 -24 -60 -18 -100 12 -23 18 -41 24 -60 20 -20 -4 -27 0 -33 16 -4 13
-15 21 -28 21 -46 0 -102 23 -135 56 -19 19 -43 34 -54 34 -10 0 -28 5 -39 11
-19 10 -19 12 -5 34 23 35 1 42 -31 11 -23 -23 -27 -24 -46 -11 -12 8 -32 15
-44 15 -13 0 -40 11 -61 24 -44 28 -82 38 -101 27z m806 -287 c28 -26 30 -44
5 -44 -20 0 -45 24 -55 53 -9 24 19 19 50 -9z m153 -64 c0 -10 -6 -21 -12 -23
-12 -5 8 -8 94 -12 18 -1 34 -7 35 -12 2 -6 13 -9 23 -6 15 4 22 -2 30 -23 6
-16 17 -32 23 -36 7 -5 3 -8 -11 -8 -13 0 -60 18 -105 39 -45 21 -97 44 -115
51 -37 14 -57 36 -24 28 14 -4 22 0 25 13 6 24 37 15 37 -11z m318 -155 c5
-25 -29 -15 -39 12 -7 20 -6 21 14 14 12 -5 24 -16 25 -26z m55 -19 c4 -10 1
-13 -9 -9 -15 6 -19 23 -5 23 5 0 11 -7 14 -14z m97 -47 c0 -6 -7 -8 -16 -5
-9 3 -18 6 -20 6 -2 0 -4 7 -4 15 0 13 4 14 20 5 11 -6 20 -16 20 -21z m95
-37 c0 -18 -20 -15 -23 4 -3 10 1 15 10 12 7 -3 13 -10 13 -16z m89 -27 c8 -8
28 -15 45 -15 16 0 36 -7 45 -15 8 -8 19 -15 25 -15 6 0 15 -9 21 -21 6 -11
17 -18 23 -16 7 3 28 -3 47 -13 19 -10 54 -26 77 -36 45 -20 59 -40 21 -29
-31 9 -152 59 -250 105 -26 12 -52 19 -57 16 -13 -8 -54 32 -46 44 9 15 31 12
49 -5z m691 -315 c3 -5 2 -10 -4 -10 -5 0 -13 5 -16 10 -3 6 -2 10 4 10 5 0
13 -4 16 -10z m85 -40 c0 -5 -4 -10 -9 -10 -6 0 -13 5 -16 10 -3 6 1 10 9 10
9 0 16 -4 16 -10z m295 -120 c3 -5 1 -10 -4 -10 -6 0 -11 5 -11 10 0 6 2 10 4
10 3 0 8 -4 11 -10z"/>
<path d="M3870 6580 c0 -5 7 -10 16 -10 8 0 12 5 9 10 -3 6 -10 10 -16 10 -5
0 -9 -4 -9 -10z"/>
<path d="M1830 6411 c-14 -5 -59 -27 -100 -50 -119 -68 -145 -99 -115 -145 38
-58 292 -199 449 -250 94 -31 171 -16 233 43 46 43 56 66 42 92 -9 17 -8 31 1
60 12 35 11 41 -6 60 -21 24 -101 65 -283 145 -123 54 -164 62 -221 45z"/>
<path d="M2498 6095 c-37 -13 -126 -72 -181 -118 -20 -17 -28 -31 -25 -48 11
-77 408 -280 553 -283 33 0 70 3 83 7 19 7 22 5 22 -18 0 -46 17 -65 58 -65
47 0 82 -24 82 -55 0 -19 11 -27 63 -48 34 -14 100 -42 147 -62 136 -58 162
-66 225 -67 72 -1 121 21 179 80 33 34 38 45 32 69 -4 15 -7 44 -6 64 1 41
-35 93 -73 105 -12 4 -85 35 -162 69 -214 95 -236 101 -291 87 -25 -7 -65 -25
-88 -41 -22 -15 -51 -33 -63 -40 -22 -11 -22 -11 -6 17 11 19 14 35 8 48 -5
10 -7 39 -6 64 3 58 -6 66 -134 120 -55 23 -146 62 -202 86 -109 47 -151 53
-215 29z"/>
<path d="M1425 6093 c-42 -9 -83 -29 -165 -81 l-85 -53 80 7 c44 4 124 8 177
8 122 1 138 -9 117 -75 -14 -43 -52 -79 -63 -60 -4 6 7 17 24 26 16 8 30 20
30 25 0 5 -12 2 -27 -5 -16 -8 -53 -20 -83 -26 -98 -19 -140 -33 -140 -45 0
-20 -84 -35 -132 -25 -23 6 -44 9 -45 7 -12 -11 16 -38 55 -53 45 -17 117 -20
262 -11 40 3 45 1 42 -17 -2 -11 -13 -28 -25 -38 -12 -10 -17 -16 -12 -15 23
5 76 -12 69 -23 -4 -7 -1 -10 7 -7 8 3 22 1 31 -4 10 -5 52 -17 94 -28 l77
-19 31 22 c130 90 157 121 161 181 1 23 5 51 9 63 12 39 -10 70 -71 98 -32 15
-108 51 -169 81 -92 45 -195 78 -223 73 -3 -1 -15 -3 -26 -6z m144 -307 c-1
-20 -1 -21 -6 -1 -3 11 -9 24 -14 30 -5 5 -9 14 -9 20 0 5 7 1 15 -9 8 -11 14
-29 14 -40z"/>
<path d="M2115 5792 c-23 -5 -344 -213 -345 -224 0 -16 85 -23 240 -19 287 7
422 6 507 -3 73 -7 84 -6 89 8 15 39 -39 71 -291 171 -93 37 -172 68 -175 69
-3 2 -14 1 -25 -2z"/>
<path d="M14174 5489 c-9 -18 -29 -62 -44 -98 -15 -36 -53 -127 -85 -201 -31
-74 -88 -214 -127 -310 -38 -96 -79 -196 -90 -222 -12 -27 -19 -51 -15 -54 4
-4 11 6 17 22 6 16 17 42 25 59 29 65 155 372 187 455 11 30 24 60 28 65 7 9
45 102 111 268 21 54 18 63 -7 16z"/>
<path d="M3067 5481 c-4 -17 -3 -21 5 -13 5 5 8 16 6 23 -3 8 -7 3 -11 -10z"/>
<path d="M3920 5474 c-43 -16 -156 -95 -192 -137 -10 -10 -18 -32 -18 -48 0
-17 7 -32 18 -38 9 -5 47 -31 83 -58 36 -26 92 -60 125 -75 32 -14 91 -41 129
-58 114 -52 175 -70 237 -70 70 0 109 22 181 100 40 44 47 57 42 79 -4 14 -10
27 -15 29 -5 2 -5 13 0 26 22 60 -48 106 -301 200 -171 63 -225 72 -289 50z"/>
<path d="M3000 5450 c-19 -5 -62 -10 -96 -12 -33 -3 -65 -7 -71 -11 -25 -15
-172 -41 -235 -40 -38 0 -68 -3 -68 -6 0 -11 45 -48 78 -65 18 -10 68 -24 110
-32 72 -14 100 -14 242 2 33 4 70 -9 59 -20 -2 -3 -17 -7 -32 -10 -16 -3 -37
-16 -48 -30 -12 -15 -31 -26 -44 -26 -13 0 -26 -3 -28 -7 -3 -5 -33 -7 -66 -6
-34 0 -61 -3 -61 -8 0 -11 -49 7 -70 26 -8 7 -36 16 -62 20 -29 4 -55 16 -68
30 l-21 23 26 20 26 21 -22 11 c-15 9 -24 9 -32 1 -6 -6 -19 -11 -30 -11 -15
0 -17 -5 -12 -30 4 -18 3 -30 -4 -30 -6 0 -8 6 -5 13 3 8 -3 20 -12 28 -16 12
-17 12 -11 -4 10 -27 -19 -63 -64 -81 -51 -21 -62 -20 -55 2 10 30 -53 16 -64
-14 -5 -13 -13 -24 -17 -23 -5 1 -21 0 -38 -1 -20 -1 -4 -8 50 -20 44 -10 110
-27 147 -38 51 -14 79 -17 115 -11 27 4 80 12 118 18 39 6 104 15 145 22 41 6
140 13 220 16 115 4 161 10 223 29 43 13 87 24 97 24 25 0 35 17 19 36 -7 8
-62 39 -123 69 -88 42 -115 60 -129 86 -14 24 -21 29 -29 21 -7 -7 -16 -12
-22 -12 -6 0 -5 5 2 12 13 13 16 29 5 27 -5 -1 -24 -5 -43 -9z m-695 -260 c3
-5 2 -10 -4 -10 -5 0 -13 5 -16 10 -3 6 -2 10 4 10 5 0 13 -4 16 -10z"/>
<path d="M2578 5302 c-22 -4 -23 -18 -4 -25 8 -3 17 1 20 10 8 19 6 20 -16 15z"/>
<path d="M1318 5283 c7 -3 16 -2 19 1 4 3 -2 6 -13 5 -11 0 -14 -3 -6 -6z"/>
<path d="M1688 5269 c-2 -6 -18 -13 -36 -14 -17 -2 -29 1 -26 6 6 10 -74 4
-84 -5 -3 -4 10 -6 29 -6 71 0 128 -5 135 -12 4 -5 19 -8 33 -8 l26 1 -28 12
c-16 7 -28 16 -27 22 2 14 -17 18 -22 4z"/>
<path d="M1478 5263 c7 -3 16 -2 19 1 4 3 -2 6 -13 5 -11 0 -14 -3 -6 -6z"/>
<path d="M1788 5233 c7 -3 16 -2 19 1 4 3 -2 6 -13 5 -11 0 -14 -3 -6 -6z"/>
<path d="M1840 5230 c-24 -8 -24 -8 7 -9 17 -1 35 4 38 9 7 11 -9 11 -45 0z"/>
<path d="M2175 5200 c3 -5 8 -10 11 -10 2 0 4 5 4 10 0 6 -5 10 -11 10 -5 0
-7 -4 -4 -10z"/>
<path d="M2113 5193 c9 -2 23 -2 30 0 6 3 -1 5 -18 5 -16 0 -22 -2 -12 -5z"/>
<path d="M3671 5170 c-19 -16 -44 -29 -55 -29 -31 0 -104 -17 -118 -28 -27
-20 -203 -70 -303 -85 -15 -3 -8 -9 27 -26 59 -29 205 -45 308 -33 75 8 110 5
110 -9 0 -13 -24 -27 -57 -35 -18 -3 -33 -11 -33 -16 0 -5 -8 -9 -18 -9 -10 0
-24 -6 -30 -12 -10 -10 -15 -10 -22 2 -8 11 -12 12 -18 3 -4 -7 -16 -12 -27
-13 -43 -2 -82 -1 -120 3 -22 2 -48 -1 -57 -7 -11 -7 -25 -6 -43 2 -15 7 -31
10 -36 7 -5 -4 -9 -1 -9 4 0 6 -14 11 -31 11 -24 0 -30 -4 -25 -15 3 -8 1 -15
-4 -15 -5 0 -11 -9 -15 -20 -5 -15 -19 -21 -66 -26 -42 -5 -63 -12 -69 -25
-12 -22 -63 -34 -89 -20 -11 6 -22 7 -25 3 -3 -5 -19 -7 -37 -4 -17 2 -26 8
-20 11 6 4 -5 7 -24 7 -19 0 -30 -3 -23 -7 6 -4 -17 -9 -50 -11 -58 -3 -79 4
-49 15 6 3 1 6 -13 6 -15 1 -32 -5 -39 -11 -11 -10 -13 -10 -7 0 4 6 4 12 -1
12 -4 1 -29 2 -55 4 -26 2 -45 0 -42 -5 3 -5 0 -9 -5 -9 -6 0 -11 7 -11 15 0
16 -26 21 -32 6 -1 -5 -17 -12 -35 -15 -27 -6 -32 -4 -35 15 -2 15 -11 23 -29
25 -25 2 -27 0 -25 -32 1 -32 0 -34 -32 -34 -20 0 -31 4 -27 10 11 18 -15 11
-37 -10 -12 -11 -34 -20 -49 -20 -15 0 -31 -4 -34 -10 -3 -5 -11 -10 -17 -10
-7 0 -6 5 1 14 17 20 -33 30 -87 17 -25 -5 -44 -5 -48 0 -8 14 -24 11 -24 -5
0 -7 -9 -16 -20 -19 -17 -4 -20 -2 -14 16 6 20 6 20 -21 -1 -26 -21 -30 -21
-52 -7 -18 12 -28 13 -44 4 -12 -6 -30 -9 -40 -6 -10 3 -22 1 -25 -4 -3 -5
-10 -7 -15 -3 -5 3 -6 11 -2 17 4 6 -5 2 -21 -10 -15 -12 -34 -19 -42 -16 -8
3 -14 0 -14 -6 0 -6 -7 -11 -15 -11 -8 0 -14 6 -13 13 2 8 -8 11 -34 9 -33 -3
-40 0 -56 28 -18 28 -21 30 -35 16 -12 -12 -22 -14 -40 -7 -16 6 -28 6 -35 -1
-6 -6 -16 -7 -22 -3 -9 6 -8 10 4 17 9 5 14 14 10 19 -4 6 -11 5 -21 -2 -12
-10 -16 -10 -24 2 -6 10 -9 10 -9 1 0 -6 -3 -11 -7 -10 -5 1 -21 -4 -38 -11
-29 -12 -32 -11 -67 29 -21 23 -42 39 -48 35 -5 -3 -10 -2 -10 4 0 5 8 15 18
20 9 6 12 11 6 11 -5 0 -15 -5 -22 -12 -9 -9 -16 -6 -32 12 -11 13 -22 21 -25
18 -3 -2 11 -23 31 -46 20 -24 32 -47 28 -54 -5 -8 -2 -9 9 -5 11 4 14 2 10
-9 -6 -17 -5 -18 -48 3 -19 9 -35 21 -35 27 0 6 -7 0 -16 -12 -14 -21 -62 -33
-49 -12 3 6 2 10 -4 10 -5 0 -12 8 -14 18 -4 14 -6 14 -12 -5 -4 -13 -12 -23
-17 -23 -5 0 -6 -4 -3 -10 9 -14 -7 -12 -48 5 -19 8 -37 20 -40 27 -3 8 -6 6
-6 -4 -1 -20 -12 -23 -27 -8 -7 7 -19 4 -37 -10 -24 -19 -28 -19 -33 -6 -3 9
-13 16 -20 16 -8 0 -17 6 -20 14 -3 8 -12 12 -20 9 -9 -3 -14 1 -14 12 0 17
-1 17 -20 0 -11 -10 -23 -15 -27 -11 -4 4 -1 11 7 16 17 11 13 15 -21 23 -23
6 -28 3 -37 -26 -5 -17 -10 -24 -11 -15 -1 10 -13 19 -31 23 -17 4 -30 11 -30
16 0 5 -9 8 -20 6 -25 -4 -39 -17 -18 -17 9 0 21 -7 28 -15 10 -12 5 -13 -40
-8 -45 5 -53 3 -66 -16 -8 -11 -21 -21 -27 -20 -9 0 -9 2 1 6 14 5 16 23 3 23
-5 0 -18 -8 -27 -17 -17 -17 -17 -17 -11 -1 3 10 2 20 -3 23 -6 4 -10 -1 -10
-9 0 -10 -12 -16 -37 -18 -33 -3 -43 2 -76 35 -20 21 -37 42 -37 46 0 4 -16
13 -35 20 -19 7 -33 16 -30 21 3 4 -2 13 -11 20 -12 10 -17 11 -27 1 -9 -10
-8 -15 5 -25 16 -12 16 -14 -7 -24 -21 -10 -25 -9 -25 3 0 14 -16 20 -52 17
-12 -1 -15 3 -11 14 4 11 14 13 37 9 l31 -6 -34 16 c-19 9 -40 14 -47 11 -6
-2 -17 1 -23 7 -8 8 -11 7 -11 -5 0 -9 6 -19 13 -22 9 -5 9 -7 0 -12 -10 -4
-13 -40 -13 -129 l0 -124 42 -5 c24 -3 171 -8 328 -11 157 -3 346 -10 420 -15
74 -5 189 -12 255 -15 66 -4 163 -13 215 -21 52 -8 113 -14 134 -14 22 0 67
-6 100 -14 34 -8 111 -22 171 -30 237 -35 315 -48 450 -75 224 -45 236 -47
320 -40 133 11 343 3 414 -16 55 -14 76 -15 155 -4 110 14 375 4 424 -16 20
-9 32 -21 31 -32 0 -12 -2 -13 -6 -5 -4 10 -11 8 -27 -7 -21 -20 -68 -30 -146
-33 -19 -1 -37 -4 -40 -7 -13 -17 -200 -45 -200 -31 0 3 -18 6 -40 6 -22 1
-40 -2 -40 -7 0 -15 105 -58 232 -96 69 -20 124 -41 121 -46 -3 -5 -16 -6 -28
-3 -15 4 -30 0 -40 -10 -11 -11 -23 -14 -43 -8 -39 10 -92 12 -86 2 3 -5 -7
-7 -23 -6 -16 1 -35 -2 -42 -7 -11 -6 -13 -4 -7 10 6 16 2 17 -39 12 -25 -4
-45 -3 -45 2 0 5 -27 10 -60 10 -46 0 -60 -3 -60 -15 0 -7 -7 -14 -16 -14 -8
0 -12 5 -8 11 3 6 0 15 -7 20 -10 6 -19 -1 -32 -24 -13 -24 -17 -26 -13 -9 3
14 -1 22 -10 22 -8 0 -14 -5 -14 -11 0 -8 -6 -7 -17 2 -11 10 -14 10 -9 2 5
-9 1 -13 -13 -13 -10 0 -21 6 -24 13 -3 9 -9 8 -23 -3 -41 -32 -65 -42 -79
-30 -9 8 -14 7 -19 -5 -3 -8 -10 -15 -16 -15 -6 0 -8 4 -5 10 11 17 -24 58
-45 53 -11 -3 -17 -9 -14 -14 3 -5 0 -9 -5 -9 -6 0 -11 -10 -11 -22 0 -17 -3
-19 -12 -10 -7 7 -21 12 -32 12 -17 0 -18 -2 -6 -10 9 -6 10 -10 3 -10 -6 0
-15 5 -18 10 -5 8 -11 8 -20 0 -18 -15 -91 4 -99 26 -4 9 -13 14 -21 10 -11
-4 -15 1 -15 17 0 16 -3 18 -9 8 -6 -9 -21 -12 -44 -9 -25 3 -33 0 -30 -9 3
-7 -2 -13 -11 -13 -9 0 -16 8 -16 19 0 19 -35 39 -47 27 -4 -3 1 -6 10 -6 9 0
17 -4 17 -10 0 -5 -10 -10 -22 -10 -17 0 -19 -3 -10 -12 18 -18 15 -28 -9 -28
-17 0 -20 5 -15 28 8 39 -15 66 -49 58 -23 -6 -26 -4 -20 14 5 17 2 20 -24 20
-34 0 -53 -25 -44 -58 5 -19 1 -22 -26 -22 -17 0 -31 -5 -31 -11 0 -6 9 -8 21
-4 29 10 22 -25 -9 -41 -12 -6 -20 -13 -18 -15 2 -2 -3 -10 -11 -18 -13 -12
-14 -11 -9 6 6 18 3 20 -21 16 -24 -4 -26 -3 -10 7 18 11 18 12 0 26 -17 13
-16 14 8 8 22 -4 27 -1 33 18 8 32 8 38 -4 38 -5 0 -7 -7 -4 -15 5 -12 -3 -15
-35 -15 -37 0 -41 -3 -41 -24 0 -13 6 -27 13 -29 6 -3 2 -6 -11 -6 -18 -1 -22
3 -17 18 3 12 0 21 -10 25 -15 5 -22 27 -7 25 4 -1 18 -1 32 1 22 1 23 2 6 9
-18 7 -18 8 -3 14 21 8 22 27 2 27 -8 0 -15 -4 -15 -10 0 -5 -5 -10 -11 -10
-7 0 -9 11 -5 30 l6 30 -22 -19 c-11 -11 -25 -18 -30 -15 -5 3 -17 -1 -26 -9
-9 -8 -27 -18 -40 -22 -17 -5 -22 -12 -18 -28 3 -12 3 -16 0 -9 -3 6 -11 12
-18 12 -7 0 -19 12 -26 28 -8 15 -16 29 -17 31 -1 2 -9 -2 -17 -8 -14 -12 -11
-40 4 -51 4 -3 4 -14 -1 -25 -6 -17 -8 -17 -8 -2 -1 20 -21 22 -40 5 -11 -11
-13 -8 -9 14 4 21 1 26 -13 25 -10 -1 -15 -5 -13 -9 3 -4 -4 -8 -15 -8 -12 0
-21 5 -21 10 0 6 4 10 9 10 10 0 21 49 14 66 -2 7 -11 10 -19 7 -9 -3 -14 2
-14 14 0 23 22 73 33 73 4 0 7 5 7 11 0 5 -4 8 -9 5 -5 -3 -12 4 -15 17 -6 21
-7 20 -21 -12 -8 -18 -15 -45 -16 -60 -1 -36 -33 -87 -52 -83 -8 1 -18 -2 -22
-7 -3 -6 -13 -7 -21 -4 -10 4 -17 -2 -21 -15 -4 -17 -9 -19 -30 -11 -13 5 -31
9 -40 9 -13 0 -13 -3 -3 -15 11 -14 10 -14 -14 -5 -15 5 -36 15 -47 20 -11 7
-19 7 -19 1 0 -5 6 -12 13 -15 6 -4 -3 -4 -21 -1 -20 3 -31 1 -27 -5 3 -6 2
-10 -3 -10 -6 0 -13 7 -16 16 -4 9 -9 14 -12 11 -4 -3 -18 7 -32 23 -27 31
-52 39 -52 18 0 -9 -3 -8 -10 2 -7 11 -8 7 -6 -15 2 -16 8 -31 14 -33 5 -1 8
-12 5 -22 -3 -12 0 -20 6 -20 7 0 9 -5 6 -10 -8 -13 -44 30 -39 45 2 5 -5 16
-16 23 -19 12 -20 11 -14 -13 5 -19 2 -25 -11 -25 -9 0 -13 5 -10 10 3 6 -1
10 -9 10 -9 0 -16 7 -16 15 0 8 7 15 15 15 13 0 14 4 5 20 -6 11 -16 20 -23
20 -7 0 -6 -4 3 -10 11 -7 12 -12 4 -20 -9 -9 -14 -9 -18 -1 -11 17 -26 13
-26 -8 0 -10 -7 -22 -16 -25 -23 -9 -34 -7 -34 5 0 6 7 9 15 5 8 -3 15 -1 15
4 0 6 -5 10 -11 10 -7 0 -18 8 -25 18 -13 16 -14 16 -8 0 5 -13 1 -18 -14 -18
-11 0 -22 5 -24 12 -4 10 -14 9 -44 -3 -46 -18 -74 -14 -74 9 0 23 -39 47 -53
33 -6 -6 -19 -11 -28 -11 -10 0 -19 -6 -21 -12 -3 -7 -19 -12 -39 -10 -30 2
-32 0 -16 -12 24 -19 22 -23 -18 -28 -22 -2 -40 1 -47 9 -6 8 -19 11 -31 7
-11 -3 -23 -1 -27 6 -6 9 -15 8 -40 -5 -17 -9 -34 -14 -37 -12 -3 3 8 12 23
20 27 14 27 15 6 26 -24 13 -53 5 -46 -13 7 -18 -32 -51 -41 -36 -4 7 -1 17 6
22 10 7 8 8 -8 5 -12 -3 -24 0 -27 7 -3 7 -9 5 -16 -7 -6 -9 -16 -14 -22 -11
-6 4 -15 0 -20 -7 -7 -11 -11 -11 -15 -1 -6 16 -43 16 -43 -1 0 -7 5 -18 12
-25 9 -9 9 -12 0 -12 -7 0 -15 7 -18 15 -4 8 -12 15 -20 15 -12 0 -14 -64 -14
-394 l0 -394 68 -12 c219 -37 480 -124 574 -191 25 -18 33 -20 55 -10 23 11
25 10 14 -3 -16 -19 3 -30 22 -12 11 11 45 14 150 14 74 0 140 3 146 6 6 4 11
3 11 -2 0 -5 30 -13 67 -17 38 -4 73 -10 78 -15 6 -4 35 -13 65 -20 30 -7 74
-23 97 -36 22 -12 43 -20 46 -18 3 3 24 -4 48 -14 45 -20 112 -34 249 -52 41
-6 77 -16 79 -22 2 -6 19 -27 37 -45 19 -19 34 -38 34 -42 0 -5 75 -46 167
-92 264 -129 596 -294 618 -307 11 -6 85 -42 165 -80 80 -39 346 -169 592
-291 246 -121 456 -221 467 -221 15 0 35 26 77 98 31 53 114 184 186 290 71
106 128 195 126 197 -1 2 -34 18 -73 37 -38 19 -131 66 -205 105 -74 38 -223
109 -330 158 -186 84 -1014 493 -1053 520 -16 11 -16 13 -2 19 9 3 20 4 24 1
9 -5 153 11 189 21 19 6 22 3 22 -24 0 -19 7 -35 21 -43 11 -8 21 -21 22 -29
4 -28 19 -41 70 -64 29 -13 102 -48 162 -77 61 -29 112 -53 115 -54 3 -1 14
-5 25 -9 79 -30 105 -38 167 -51 38 -8 82 -15 99 -15 23 0 31 -6 43 -35 8 -19
19 -35 24 -35 5 0 33 -24 63 -53 30 -29 74 -61 99 -72 25 -11 54 -28 65 -38
11 -10 31 -21 45 -24 14 -3 39 -14 55 -23 87 -49 148 -63 274 -66 l124 -3 20
-31 c24 -38 41 -38 100 0 86 54 126 70 262 106 87 22 152 45 182 64 38 24 128
58 232 87 21 6 7 16 -104 71 -176 88 -240 100 -310 57 -41 -26 -60 -32 -51
-16 3 5 -1 12 -10 15 -15 6 -15 8 1 27 15 15 17 25 9 45 -11 31 -21 37 -259
150 -284 136 -320 144 -412 97 -29 -14 -56 -23 -59 -20 -4 3 -8 34 -10 67 -2
40 -11 71 -23 88 -11 16 -73 56 -150 96 -72 38 -129 71 -127 73 1 2 22 -4 46
-12 23 -8 52 -15 64 -15 12 0 32 -7 44 -16 12 -8 22 -13 22 -10 0 3 26 -6 58
-20 31 -14 90 -37 130 -51 124 -43 257 -23 334 50 7 6 31 25 53 42 40 30 67
51 89 70 6 6 34 28 61 50 28 21 53 44 57 50 8 11 1 50 -15 83 -8 17 -8 25 1
34 18 18 14 55 -9 76 -56 53 -395 209 -473 218 -47 6 -62 3 -121 -25 -37 -18
-100 -54 -140 -81 -40 -27 -75 -46 -79 -43 -3 4 -6 1 -6 -5 0 -7 -6 -12 -12
-12 -7 0 13 25 45 55 32 30 52 55 46 55 -8 0 -8 4 -2 13 12 14 8 51 -13 124
-16 55 -30 69 -114 115 -25 13 -46 29 -47 35 -3 15 82 25 113 13 22 -9 25 -8
20 5 -9 25 10 17 24 -10 7 -14 18 -25 24 -25 6 0 28 -11 49 -25 20 -14 37 -21
37 -15 0 10 10 6 60 -21 35 -20 117 -57 140 -64 14 -4 27 -12 31 -16 3 -5 39
-21 80 -35 76 -28 190 -37 237 -20 20 7 22 5 22 -21 0 -31 29 -64 85 -99 17
-10 36 -27 43 -37 12 -15 212 -118 227 -117 3 1 27 -10 53 -24 54 -29 154 -56
203 -56 63 1 148 56 294 189 22 20 56 49 75 65 41 33 54 70 37 100 -6 12 -12
50 -12 86 l0 65 -145 72 c-289 143 -339 155 -448 103 l-63 -29 -10 27 c-6 14
-15 29 -20 33 -6 4 -6 15 0 32 13 34 0 71 -33 92 -51 34 -423 198 -457 202
-43 6 -78 -10 -171 -79 -37 -27 -73 -48 -80 -46 -8 3 -5 10 8 22 19 16 21 29
12 76 -2 8 -7 21 -12 28 -4 7 -5 26 -1 43 4 19 2 36 -7 46 -7 9 -76 47 -153
85 -77 38 -144 76 -148 84 -4 7 -4 30 2 49 11 42 6 43 -38 5z m-3571 -291 c0
-14 -17 -10 -23 5 -4 10 -1 13 9 9 7 -3 14 -9 14 -14z m2250 -69 c0 -5 -4 -10
-10 -10 -5 0 -10 5 -10 10 0 6 5 10 10 10 6 0 10 -4 10 -10z m-1745 -10 c3 -5
-1 -10 -9 -10 -9 0 -16 5 -16 10 0 6 4 10 9 10 6 0 13 -4 16 -10z m-128 -22
c-3 -8 -6 -5 -6 6 -1 11 2 17 5 13 3 -3 4 -12 1 -19z m663 1 c0 -5 -7 -9 -15
-9 -9 0 -12 6 -9 15 6 15 24 11 24 -6z m2237 -511 c-3 -8 -6 -5 -6 6 -1 11 2
17 5 13 3 -3 4 -12 1 -19z m33 18 c0 -3 -4 -8 -10 -11 -5 -3 -10 -1 -10 4 0 6
5 11 10 11 6 0 10 -2 10 -4z m-167 -23 c-7 -2 -21 -2 -30 0 -10 3 -4 5 12 5
17 0 24 -2 18 -5z m80 0 c-13 -2 -33 -2 -45 0 -13 2 -3 4 22 4 25 0 35 -2 23
-4z m-1917 -80 c-11 -11 -17 4 -9 23 7 18 8 18 11 1 2 -10 1 -21 -2 -24z m534
-23 c0 -5 -2 -10 -4 -10 -3 0 -8 5 -11 10 -3 6 -1 10 4 10 6 0 11 -4 11 -10z
m-1193 -16 c-3 -3 -12 -4 -19 -1 -8 3 -5 6 6 6 11 1 17 -2 13 -5z m113 -16 c0
-16 -3 -19 -11 -11 -6 6 -8 16 -5 22 11 17 16 13 16 -11z m344 -13 c-7 -16
-24 -21 -24 -6 0 8 7 13 27 20 1 1 0 -6 -3 -14z m1746 5 c0 -5 -4 -10 -10 -10
-5 0 -10 5 -10 10 0 6 5 10 10 10 6 0 10 -4 10 -10z m-2030 -15 c15 -18 13
-20 -20 -29 -16 -5 -20 -4 -12 2 7 5 10 16 6 25 -8 21 9 22 26 2z m1990 5 c0
-5 -5 -10 -11 -10 -5 0 -7 5 -4 10 3 6 8 10 11 10 2 0 4 -4 4 -10z m-230 -20
c0 -5 -2 -10 -4 -10 -3 0 -8 5 -11 10 -3 6 -1 10 4 10 6 0 11 -4 11 -10z
m-390 -35 c0 -8 -4 -15 -10 -15 -5 0 -10 7 -10 15 0 8 5 15 10 15 6 0 10 -7
10 -15z"/>
<path d="M4660 5159 c-31 -13 -123 -81 -172 -127 -57 -54 -48 -99 30 -150 15
-9 38 -27 52 -40 14 -13 66 -40 115 -61 50 -21 115 -50 145 -63 110 -51 187
-71 241 -65 93 11 210 104 204 161 -2 16 -8 32 -13 35 -6 3 -10 28 -10 55 1
60 -9 69 -142 127 -52 23 -120 55 -150 71 -111 62 -231 84 -300 57z"/>
<path d="M1575 4964 c-13 -13 -18 -14 -31 -3 -11 9 -18 9 -26 1 -6 -6 -17 -8
-24 -5 -8 3 -14 0 -14 -6 0 -6 -7 -11 -15 -11 -8 0 -15 4 -15 10 0 5 -7 7 -15
4 -8 -4 -13 -10 -10 -14 10 -17 -14 -20 -46 -6 -30 12 -35 12 -46 -3 -8 -10
-12 -11 -13 -3 0 14 -20 17 -20 3 0 -5 9 -13 20 -16 26 -8 25 -21 -2 -29 l-23
-6 25 -20 c30 -23 44 -25 36 -5 -3 8 -1 15 5 15 6 0 7 5 3 12 -5 8 -2 9 12 3
10 -4 28 -8 39 -9 11 0 23 -5 27 -11 5 -6 8 -3 8 7 0 20 -16 32 -25 18 -8 -13
-25 -13 -25 -1 0 18 40 23 55 7 19 -18 19 -24 0 -42 -8 -9 -15 -11 -15 -5 0 6
-4 11 -9 11 -5 0 -8 -11 -7 -25 1 -32 7 -31 46 5 36 34 50 38 50 14 0 -22 23
-12 37 17 7 13 18 28 25 34 11 8 22 75 13 75 -2 0 -11 -7 -20 -16z m-71 -23
c3 -5 -1 -14 -8 -20 -12 -10 -13 -8 -9 8 6 23 9 25 17 12z"/>
<path d="M250 4885 c0 -8 5 -15 10 -15 6 0 10 7 10 15 0 8 -4 15 -10 15 -5 0
-10 -7 -10 -15z"/>
<path d="M305 4861 c-3 -5 -1 -12 5 -16 5 -3 10 1 10 9 0 18 -6 21 -15 7z"/>
<path d="M1250 4844 c0 -16 39 -54 57 -54 12 0 13 3 4 13 -6 8 -8 17 -4 20 3
4 1 7 -5 7 -7 0 -12 -6 -12 -12 0 -7 -9 -2 -20 12 -11 14 -20 20 -20 14z"/>
<path d="M5412 4828 c-49 -19 -135 -86 -160 -124 -24 -36 -28 -74 -12 -104 5
-10 44 -38 85 -61 41 -24 75 -47 75 -51 0 -4 7 -8 15 -8 8 0 15 -4 15 -10 0
-5 4 -10 9 -10 5 0 26 -8 47 -17 22 -9 41 -17 44 -18 15 -4 66 -31 71 -37 8
-12 98 -30 176 -35 62 -4 81 -1 125 20 29 13 64 34 78 47 14 12 31 25 39 30
16 9 9 52 -13 72 -11 10 -11 18 1 46 13 31 12 34 -12 56 -13 12 -73 46 -132
75 -60 29 -116 57 -126 62 -9 5 -54 23 -100 39 -95 36 -178 45 -225 28z"/>
<path d="M1510 4809 c0 -5 5 -7 10 -4 6 3 10 8 10 11 0 2 -4 4 -10 4 -5 0 -10
-5 -10 -11z"/>
<path d="M2150 4768 c0 -4 9 -8 20 -8 11 0 20 4 20 9 0 6 -9 9 -20 8 -11 -1
-20 -5 -20 -9z"/>
<path d="M13789 4554 c-5 -15 -8 -29 -5 -31 2 -2 8 10 14 26 13 38 5 41 -9 5z"/>
<path d="M6205 4506 c-67 -31 -195 -158 -195 -193 0 -24 54 -74 118 -110 37
-20 72 -44 79 -53 7 -8 13 -12 13 -7 0 10 73 -28 89 -47 8 -9 37 -23 66 -32
29 -8 56 -22 59 -30 3 -8 11 -12 16 -9 6 4 17 2 24 -4 21 -18 136 -25 183 -12
23 6 63 27 88 46 25 19 50 35 57 35 6 0 8 3 5 7 -4 3 1 12 11 19 22 15 18 74
-4 74 -10 0 -11 6 -3 29 7 20 7 36 0 49 -13 25 -121 87 -231 134 -47 19 -123
51 -170 71 -102 43 -163 53 -205 33z"/>
<path d="M13766 4495 c-9 -26 -7 -32 5 -12 6 10 9 21 6 23 -2 3 -7 -2 -11 -11z"/>
<path d="M1480 4200 c0 -5 4 -10 9 -10 6 0 13 5 16 10 3 6 -1 10 -9 10 -9 0
-16 -4 -16 -10z"/>
<path d="M2080 4180 c0 -5 5 -10 10 -10 6 0 10 5 10 10 0 6 -4 10 -10 10 -5 0
-10 -4 -10 -10z"/>
<path d="M5635 4177 c-16 -8 -52 -28 -80 -46 -62 -39 -333 -269 -346 -293 -19
-35 1 -67 64 -104 34 -20 71 -46 82 -58 11 -12 63 -42 115 -68 171 -83 283
-117 391 -118 65 0 67 -1 72 -28 6 -28 17 -37 147 -122 14 -9 52 -29 85 -45
33 -15 72 -36 87 -47 14 -10 33 -18 42 -18 9 0 24 -4 34 -9 81 -43 111 -53
188 -58 127 -9 162 13 402 241 51 49 69 72 60 78 -8 4 -9 8 -2 8 15 0 12 44
-4 63 -11 13 -11 19 0 36 10 17 9 23 -10 44 -12 13 -48 34 -80 47 -31 13 -142
64 -247 114 -221 105 -242 109 -323 59 -28 -18 -54 -28 -57 -23 -3 4 1 11 7
13 10 4 10 6 0 6 -8 1 -22 11 -31 23 -16 20 -17 24 -3 48 9 16 13 36 9 52 -7
27 -74 63 -297 161 -100 43 -125 50 -195 54 -54 2 -90 -1 -110 -10z"/>
<path d="M6957 4145 c-63 -31 -156 -111 -169 -144 -14 -39 12 -79 80 -122 176
-111 206 -129 215 -129 5 0 21 -8 35 -18 15 -11 36 -22 47 -25 11 -3 47 -15
79 -27 33 -11 89 -23 125 -26 84 -7 134 10 204 71 48 41 53 49 49 78 -5 35
-20 59 -32 52 -5 -3 -3 9 3 25 8 21 8 36 1 48 -14 23 -201 119 -364 187 -155
63 -197 68 -273 30z"/>
<path d="M13536 3935 c-9 -26 -7 -32 5 -12 6 10 9 21 6 23 -2 3 -7 -2 -11 -11z"/>
<path d="M4761 3829 c-45 -9 -124 -54 -157 -90 -10 -12 -66 -54 -124 -94 -184
-128 -237 -178 -226 -213 4 -10 25 -29 49 -42 23 -13 62 -41 86 -62 24 -21 48
-38 53 -38 5 0 78 -34 161 -75 166 -83 220 -97 315 -84 79 11 130 40 267 149
138 109 147 121 132 163 -5 18 -15 35 -20 39 -7 4 -6 20 3 47 10 33 11 46 0
71 -15 35 -41 51 -186 109 -55 22 -126 51 -159 66 -123 55 -147 62 -194 54z"/>
<path d="M7793 3818 c-17 -6 -72 -50 -122 -97 -81 -77 -91 -91 -91 -122 0 -19
6 -42 13 -51 15 -21 138 -98 197 -125 25 -12 75 -35 111 -52 37 -17 75 -31 84
-31 9 0 28 -9 42 -20 14 -11 34 -20 44 -20 9 0 45 -7 79 -16 116 -29 208 0
277 89 21 28 29 92 12 103 -5 3 -9 25 -9 50 0 40 -4 46 -42 75 -50 35 -125 72
-328 159 -150 65 -209 78 -267 58z"/>
<path d="M7084 3487 c-76 -57 -266 -226 -326 -291 -27 -29 -47 -61 -48 -74 0
-39 99 -117 244 -190 l105 -54 56 21 c62 23 159 28 200 9 28 -13 30 -19 13
-36 -9 -9 -9 -15 0 -24 7 -7 12 -31 12 -55 0 -55 -20 -57 -66 -8 -18 19 -39
35 -48 35 -13 0 -30 -16 -31 -30 -1 -3 -14 -31 -29 -62 -17 -34 -26 -64 -22
-74 6 -16 8 -16 22 2 14 18 15 18 31 -5 10 -13 19 -33 20 -44 2 -10 14 -33 28
-49 29 -35 32 -72 7 -90 -10 -7 -21 -21 -25 -30 -6 -17 -70 -32 -117 -26 -21
2 -26 -2 -28 -24 -2 -16 -7 -28 -12 -28 -5 0 -9 -15 -8 -33 1 -23 -9 -47 -33
-79 -19 -26 -37 -47 -41 -47 -15 -2 -138 -116 -138 -128 0 -19 -136 -93 -171
-93 -10 0 -19 -4 -19 -9 0 -4 -20 -30 -45 -56 -25 -27 -47 -57 -51 -67 -3 -10
-9 -18 -13 -18 -5 0 -40 -31 -79 -70 -39 -38 -74 -70 -79 -70 -18 1 -52 38
-82 93 -29 51 -98 146 -126 172 -84 80 -97 87 -141 82 -45 -5 -133 -60 -134
-84 0 -6 -7 -19 -16 -27 -8 -9 -12 -16 -8 -16 23 0 -27 -32 -81 -51 -98 -34
-88 -73 21 -81 42 -3 103 38 96 64 -3 11 1 18 11 18 8 0 21 9 28 21 10 14 28
22 59 26 133 14 284 -145 282 -298 0 -31 -5 -66 -11 -76 -10 -18 -36 -77 -61
-141 -17 -43 -8 -122 16 -139 49 -36 116 5 179 108 91 148 396 572 440 612 36
31 138 85 205 107 80 27 89 35 207 188 52 67 104 132 116 143 32 30 89 58 136
65 23 4 41 10 41 15 0 5 -18 18 -40 29 -26 13 -40 27 -40 40 0 11 -6 37 -14
57 -8 21 -16 71 -19 111 -4 67 -3 74 18 85 45 24 102 73 192 164 123 124 128
132 112 180 -7 21 -12 46 -10 57 1 10 -3 31 -10 48 -13 32 -89 72 -384 202
-186 82 -209 84 -291 23z"/>
<path d="M8613 3435 c-42 -19 -157 -133 -172 -172 -15 -37 -9 -62 26 -104 25
-29 112 -90 157 -110 12 -5 28 -13 36 -19 8 -5 31 -16 50 -24 19 -8 66 -28
103 -45 84 -38 210 -71 271 -71 53 0 138 35 178 74 23 22 27 33 23 64 -3 20
-9 38 -15 40 -5 2 -10 20 -10 40 0 21 -4 42 -8 47 -15 22 -129 104 -177 128
-27 14 -97 48 -155 77 -178 89 -240 104 -307 75z"/>
<path d="M5440 3433 c-50 -18 -190 -129 -388 -310 -41 -37 -45 -44 -35 -65 11
-25 77 -80 162 -134 l54 -35 51 22 c54 23 106 28 168 16 34 -7 37 -10 26 -27
-10 -16 -9 -25 5 -49 18 -31 22 -77 8 -100 -8 -12 -15 -9 -41 12 -65 55 -67
22 -1 -37 13 -11 40 -37 60 -56 47 -45 74 -60 106 -60 14 0 25 -4 25 -10 0
-11 -59 -2 -77 13 -9 7 -22 0 -45 -22 -31 -30 -78 -42 -78 -20 0 8 -4 8 -15
-1 -8 -6 -19 -9 -25 -5 -5 3 -22 -3 -36 -14 -15 -12 -22 -21 -15 -21 12 0 15
-38 5 -64 -3 -9 -17 -16 -30 -16 -13 0 -24 -5 -24 -11 0 -6 -9 -18 -20 -27
-13 -11 -24 -36 -29 -70 -4 -29 -18 -66 -30 -82 -11 -16 -21 -34 -21 -39 0 -6
-6 -14 -13 -18 -14 -9 -112 -203 -109 -216 1 -4 -5 -10 -13 -13 -8 -4 -15 -12
-15 -19 0 -7 -7 -26 -15 -42 -8 -15 -17 -40 -20 -55 -3 -15 -12 -34 -20 -42
-14 -14 -45 -77 -45 -91 0 -17 77 -36 119 -30 53 7 157 46 217 80 43 25 183
167 185 188 3 52 6 65 19 83 8 12 38 40 65 63 87 74 109 95 164 158 59 69 149
143 173 143 15 0 45 13 76 33 10 7 10 12 1 23 -19 23 -6 25 39 6 41 -16 42
-18 37 -56 -2 -22 -9 -44 -15 -50 -5 -5 -10 -28 -10 -49 0 -36 -7 -46 -70
-108 -77 -75 -87 -99 -41 -99 46 0 77 16 107 55 21 28 24 39 15 45 -11 6 -11
12 -1 31 22 40 47 69 55 61 4 -4 5 4 2 18 -3 14 -9 48 -13 75 -3 28 -11 56
-16 62 -29 36 132 116 347 172 27 7 62 31 105 71 73 69 105 87 205 119 82 26
100 35 92 48 -8 13 -245 116 -364 159 -53 19 -111 34 -130 34 -46 0 -96 -27
-184 -101 -41 -34 -126 -101 -189 -150 -63 -48 -121 -97 -128 -109 -18 -30 -8
-53 43 -95 31 -25 45 -44 45 -61 0 -28 4 -28 -51 -9 -84 29 -159 69 -159 85 0
8 -9 33 -21 54 -21 39 -20 48 6 52 82 12 221 107 348 238 46 47 57 64 52 80
-4 12 -7 29 -8 39 -1 9 -4 17 -7 17 -3 0 -4 20 -2 45 4 39 0 49 -26 73 -16 15
-80 50 -143 79 -63 28 -159 72 -214 97 -85 39 -109 46 -160 45 -33 0 -67 -3
-75 -6z"/>
<path d="M13302 3377 c-18 -50 -15 -56 9 -18 11 19 17 37 12 42 -5 5 -14 -6
-21 -24z"/>
<path d="M7948 3160 c-51 -9 -128 -70 -296 -235 -126 -124 -142 -144 -142
-173 0 -27 6 -36 31 -50 17 -9 53 -35 79 -57 52 -43 108 -74 180 -99 61 -22
93 -47 84 -69 -3 -9 -11 -17 -18 -17 -7 0 -11 -24 -11 -67 0 -38 -4 -82 -8
-100 -8 -29 -4 -36 34 -77 47 -52 83 -60 113 -24 l19 21 13 -24 c16 -29 18
-59 4 -59 -5 0 -10 -9 -10 -20 0 -14 -7 -20 -22 -20 -26 -1 -61 -24 -51 -33
11 -12 9 -81 -3 -107 -6 -14 -18 -38 -25 -55 -17 -38 -49 -81 -57 -77 -4 2 -9
-5 -11 -15 -5 -27 -32 -63 -42 -57 -5 3 -9 -2 -9 -10 0 -8 -6 -19 -13 -23 -7
-4 -19 -28 -27 -52 -13 -39 -122 -228 -139 -241 -4 -3 -39 -48 -77 -100 -39
-53 -106 -132 -149 -175 -43 -44 -98 -105 -123 -135 -25 -30 -75 -91 -111
-135 -69 -84 -111 -140 -111 -150 0 -3 -11 -23 -25 -44 -40 -65 -51 -123 -30
-176 31 -83 96 -106 179 -64 42 21 67 42 366 307 194 173 239 205 360 252 114
46 137 64 205 165 32 48 80 110 106 140 75 82 71 94 -53 156 l-102 51 34 30
c19 16 40 32 45 36 6 4 51 44 100 88 50 45 106 92 125 105 59 40 122 102 136
134 15 37 5 145 -16 171 -22 26 -75 56 -180 103 -52 24 -142 65 -200 92 -58
27 -111 49 -117 49 -10 0 -29 117 -20 126 2 3 39 -5 81 -16 78 -22 189 -24
244 -5 16 5 22 3 22 -7 0 -51 140 -171 280 -240 275 -134 388 -156 493 -95
l44 26 -5 -52 c-4 -52 -3 -53 44 -100 50 -48 153 -107 279 -157 39 -16 84 -35
100 -44 17 -9 34 -16 38 -16 4 0 27 -9 50 -19 77 -35 321 -129 367 -141 25 -7
74 -12 109 -12 76 1 164 39 240 106 49 42 65 55 143 119 65 52 91 97 78 132
-5 14 -10 39 -10 56 0 54 -55 99 -207 169 -76 35 -182 85 -236 112 -108 54
-290 127 -381 153 -91 27 -177 17 -259 -29 -69 -38 -82 -43 -71 -24 13 20 5
82 -11 91 -11 6 -13 13 -5 27 6 12 6 28 -1 50 -11 29 -31 41 -223 135 -236
115 -264 125 -353 125 -53 0 -73 -6 -139 -40 -43 -22 -79 -38 -81 -36 -2 2 -5
20 -6 39 -2 20 -6 39 -10 43 -4 4 -7 21 -7 38 0 42 -31 90 -77 120 -21 14
-123 65 -228 114 -193 91 -241 105 -317 92z"/>
<path d="M409 3145 c-2 -1 -52 -6 -111 -9 -88 -5 -114 -11 -152 -32 -25 -14
-50 -23 -55 -20 -5 4 -12 2 -16 -4 -3 -5 -15 -10 -26 -10 -10 0 -19 -7 -19
-15 0 -8 -7 -15 -15 -15 -13 0 -15 -48 -15 -371 l0 -372 88 7 c48 3 107 9 132
11 47 6 116 13 185 19 22 2 58 9 80 16 22 6 72 16 110 21 39 6 90 16 114 23
41 12 45 16 57 61 6 27 10 54 7 61 -2 6 3 14 11 17 23 9 20 36 -3 30 -10 -3
-21 -1 -24 4 -5 8 16 78 39 128 14 31 11 232 -3 246 -7 7 -13 19 -13 27 0 8
-10 26 -22 40 -14 18 -19 21 -14 8 3 -10 2 -24 -4 -31 -7 -8 -6 -23 5 -49 25
-60 45 -148 39 -172 -6 -23 -7 -23 -30 12 -13 19 -24 45 -25 57 0 12 -3 16 -6
10 -7 -18 -28 -16 -71 6 -26 13 -43 16 -54 10 -9 -5 -19 -6 -22 -1 -3 5 -48 7
-100 6 -52 -2 -108 1 -124 5 -17 5 -36 5 -47 -1 -13 -8 -20 -7 -27 6 -9 16
-11 16 -22 1 -11 -15 -19 -16 -59 -7 -32 6 -45 6 -40 -1 3 -6 1 -7 -5 -3 -6 4
-25 9 -41 11 -23 2 -30 -1 -34 -17 -6 -22 -27 -16 -27 8 0 19 42 84 71 110 71
61 137 79 306 79 85 0 133 4 133 10 0 10 -144 87 -151 80z m356 -165 c3 -5 1
-10 -4 -10 -6 0 -11 5 -11 10 0 6 2 10 4 10 3 0 8 -4 11 -10z"/>
<path d="M9499 3070 c-65 -11 -96 -30 -164 -99 -58 -59 -79 -101 -68 -139 10
-38 243 -184 420 -263 104 -46 225 -61 306 -37 23 7 60 32 90 60 45 45 49 52
42 81 -4 18 -11 54 -15 81 -8 58 -15 64 -150 143 -118 68 -384 187 -409 182
-3 -1 -27 -5 -52 -9z"/>
<path d="M428 2873 c7 -3 16 -2 19 1 4 3 -2 6 -13 5 -11 0 -14 -3 -6 -6z"/>
<path d="M10303 2673 c-45 -25 -202 -180 -214 -210 -15 -40 -3 -58 69 -110
118 -85 120 -86 282 -161 246 -115 398 -114 509 1 l34 36 -7 73 c-12 122 -41
157 -176 213 -36 15 -140 61 -232 101 -176 78 -212 86 -265 57z"/>
<path d="M7170 2626 c0 -2 7 -9 15 -16 9 -7 15 -8 15 -2 0 5 -7 12 -15 16 -8
3 -15 4 -15 2z"/>
<path d="M5932 2379 c-29 -26 -74 -98 -70 -110 5 -15 46 19 79 64 43 60 37 90
-9 46z"/>
<path d="M7810 2290 c0 -5 5 -10 10 -10 6 0 10 5 10 10 0 6 -4 10 -10 10 -5 0
-10 -4 -10 -10z"/>
<path d="M5840 2091 c0 -5 -14 -14 -32 -20 -17 -6 -29 -14 -26 -17 7 -7 64 21
73 36 3 5 1 10 -4 10 -6 0 -11 -4 -11 -9z"/>
<path d="M8715 1949 c-23 -5 -69 -32 -106 -62 -104 -82 -292 -242 -314 -267
-21 -24 -26 -82 -12 -153 7 -34 10 -37 35 -31 15 4 50 20 78 35 28 16 84 38
125 48 41 11 97 29 125 40 42 16 58 18 92 9 60 -15 102 -65 102 -121 0 -48
-24 -147 -46 -191 -18 -37 -18 -62 1 -70 8 -3 15 -1 15 5 0 6 5 7 10 4 6 -3
10 -2 10 2 0 5 8 18 17 30 17 20 17 20 35 -34 12 -34 15 -59 10 -66 -5 -7 -22
-50 -37 -96 -38 -114 -94 -226 -146 -290 -57 -68 -86 -106 -188 -237 -46 -60
-148 -170 -225 -245 -78 -75 -163 -164 -189 -198 l-48 -61 218 0 219 0 19 33
c11 17 21 37 22 42 1 6 8 31 14 58 7 26 18 47 26 47 12 0 18 25 14 58 -1 6 3
12 9 12 5 0 10 7 10 16 0 11 5 14 16 10 12 -5 14 -1 9 15 -10 32 44 73 144
109 101 37 102 37 206 124 151 125 180 151 243 213 49 49 61 68 58 85 -3 13
-8 45 -11 72 -6 42 -14 56 -58 99 l-51 50 49 -8 c220 -34 322 -19 412 63 17
15 61 54 98 87 37 33 96 87 131 119 l64 59 -4 65 c-4 51 -9 70 -28 88 -25 25
-299 143 -600 258 -106 41 -248 97 -314 125 -128 53 -193 66 -259 50z"/>
<path d="M12420 1571 c-47 -48 -137 -134 -200 -191 -147 -134 -270 -251 -445
-421 -221 -214 -275 -263 -305 -276 -16 -7 -115 -97 -220 -200 -106 -103 -229
-224 -274 -268 -45 -44 -113 -108 -151 -142 -38 -34 -67 -65 -64 -67 6 -7 145
114 338 293 80 75 171 158 201 186 108 100 466 442 559 535 127 127 244 237
431 407 85 77 171 159 190 183 19 23 37 43 39 46 2 2 0 3 -5 2 -5 0 -47 -40
-94 -87z"/>
</g>
</svg>
